<?xml version="1.0" encoding="utf-8"?>
<!-- Generator: Adobe Illustrator 22.1.0, SVG Export Plug-In . SVG Version: 6.00 Build 0)  -->
<svg version="1.0" xmlns="http://www.w3.org/2000/svg" xmlns:xlink="http://www.w3.org/1999/xlink" x="0px" y="0px"
	 viewBox="0 0 841.9 595.3" style="enable-background:new 0 0 841.9 595.3;" xml:space="preserve">
<style type="text/css">
	.st0{stroke:#000000;stroke-width:1.5;stroke-miterlimit:10;}
	.st1{stroke:#000000;stroke-miterlimit:10;}
</style>
<g id="Calque_2">
</g>
<g id="Calque_1">
	<g>
		<g>
			<g>
				<path d="M90.7,217c-11.9,0-23.9,0.1-35.8,0c-4.8,0-4.8,7.5,0,7.5c11.9,0.1,23.9,0,35.8,0C95.5,224.5,95.5,217,90.7,217L90.7,217
					z"/>
			</g>
		</g>
		<g>
			<g>
				<path d="M307.6,218.1c-24.2,22.8-57,38.5-90.8,33c-16.2-2.6-31.7-8.5-45.5-17.3c-3.4-2.2-6.7-4.5-9.9-7c-3.3-2.6-6-5.6-9.9-7.3
					c-6.7-2.9-15.8-1.8-23-2c-4.8-0.1-4.8,7.4,0,7.5c4.6,0.1,9.1,0.3,13.7,0.6c2.4,0.1,4.7,0,6.9,1.1c2.2,1,3.9,3,5.7,4.5
					c6.5,5.4,13.6,10.1,21,14.1c14.4,7.7,30.2,12.4,46.4,14.2c33.6,3.7,66.8-13.5,90.6-35.9C316.5,220,311.2,214.7,307.6,218.1
					L307.6,218.1z"/>
			</g>
		</g>
		<g>
			<g>
				<path d="M420.9,217c-36.9,0.3-73.8,0.3-110.7,0c-4.8,0-4.8,7.5,0,7.5c36.9,0.3,73.8,0.3,110.7,0
					C425.8,224.4,425.8,216.9,420.9,217L420.9,217z"/>
			</g>
		</g>
	</g>
	<g>
		<g>
			<g>
				<path d="M229.8,162.2c0.5,0.1,1,0.1,1.4,0.2c-0.3,0-0.7-0.1-1-0.1c0.1,0,0.1,0,0.2,0c1,0.1,1.9,0.2,2.9-0.4
					c0.8-0.5,1.5-1.3,1.7-2.2c0.2-1,0.2-2-0.4-2.9c-0.5-0.8-1.3-1.6-2.2-1.7c-0.9-0.1-1.7-0.2-2.6-0.3c-0.9-0.1-2,0.5-2.7,1.1
					c-0.7,0.7-1.1,1.7-1.1,2.7c0,1,0.4,2,1.1,2.7C227.9,161.8,228.7,162.1,229.8,162.2L229.8,162.2z"/>
			</g>
		</g>
		<g>
			<g>
				<path d="M229.8,154.7c-23-2.1-42.7,13.2-56.9,29.7c-8.9,10.4-17,22.1-22.9,34.4c-2.1,4.3,4.4,8.1,6.5,3.8
					c5.4-11.2,12.5-21.8,20.4-31.3c13.1-15.8,31.1-31.1,52.9-29.1C234.6,162.6,234.5,155.1,229.8,154.7L229.8,154.7z"/>
			</g>
		</g>
		<g>
			<g>
				<path d="M229.8,154.7c-0.9,0.1-1.7,0.2-2.6,0.3c-0.9,0.1-1.8,1-2.2,1.7c-0.5,0.8-0.7,2-0.4,2.9c0.3,0.9,0.9,1.8,1.7,2.2
					c0.3,0.1,0.6,0.3,0.9,0.4c0.7,0.2,1.3,0.2,2,0c0.1,0,0.1,0,0.2,0c-0.3,0-0.7,0.1-1,0.1c0.5-0.1,1-0.1,1.4-0.2
					c1-0.1,1.9-0.3,2.7-1.1c0.7-0.7,1.1-1.7,1.1-2.7c0-1-0.4-2-1.1-2.7C231.7,155.1,230.7,154.6,229.8,154.7L229.8,154.7z"/>
			</g>
		</g>
		<g>
			<g>
				<path d="M309.6,218.8c-6-12.4-14-24-22.9-34.4c-14.2-16.5-33.9-31.8-56.9-29.7c-4.8,0.4-4.8,7.9,0,7.5
					c21.9-2,39.8,13.3,52.9,29.1c7.9,9.5,15,20.2,20.4,31.3C305.3,226.9,311.7,223.1,309.6,218.8L309.6,218.8z"/>
			</g>
		</g>
	</g>
	<g>
		<g>
			<path d="M125,228.8c0.3,3.8,0,9.2-2.3,12.5c-2.1,3-2.6,0.4-3.3-1.7c-0.6-1.9-0.7-4-0.7-6c-2.3-0.8-4.6-1.5-6.9-2.3
				c0.1,3.2-0.2,6.8-1.1,9.9c-0.1,0.4-0.7,1.5-0.7,1.9c-1.1,1.4,0.1,2,3.5,1.9c-0.3-0.7-0.7-1.3-1-2c-1.2-3.1-0.9-6.5-2.5-9.5
				c-0.5-1-6.9-4.2-6.9-2.6c-0.1,1.9,1.6,12.1-1.7,12c1.6,0.5,3.3,1.1,4.9,1.6c-2.8-1.6-5.4-8.2-5.3-11.4c0.1-1.8-6.6-4.4-6.9-3
				c-0.3,1.2-1.6,10.9-3.4,10.8c1.4,0.5,2.8,1.1,4.2,1.6c-2.9-2-3.3-9.1-2.9-12.1c0.3-2.8,1.3-5.8,2.8-8.2c2.8-4.5,7.6-6.8,12.7-8
				c4-0.9,13.5-3.3,15.5,0.5C125,218.9,124.6,224.5,125,228.8c0.2,1.8,7.1,3.9,6.9,2.3c-0.8-7.7-0.2-15.7-8.1-19.6
				c-7.8-3.8-18.9-2.5-26.8,0.5c-9.5,3.6-14.2,14.1-11.1,23.7c1.4,4.2,3.6,7.7,8.2,8.7c6.1,1.3,5.9-7.1,6.9-11.3c-2.3-1-4.6-2-6.9-3
				c-0.3,6.1,5,14.9,11.4,16.2c6.7,1.3,4.4-8.8,4.5-12.5c-2.3-0.9-4.6-1.7-6.9-2.6c2.2,4.2,1.2,9.6,4.7,13.2c1.5,1.6,5.1,3.7,7.4,3
				c4-1.2,3.6-10.5,3.5-13.8c-0.1-1.7-6.9-4-6.9-2.3c0.1,7.5,3.5,13.2,11.1,15c2.9,0.7,5.1,0.6,6.7-2c2.3-3.8,2.6-8.9,2.3-13.2
				C131.8,229.3,124.9,227.2,125,228.8z"/>
		</g>
	</g>
	<g>
		<g>
			<path d="M323.4,283.2c-0.2-3.2-0.3-8.9,1.9-11.7c3.8-4.9,4.3,4.8,4.3,7c2.3,0.7,4.6,1.5,6.9,2.2c-0.1-3.3,0.1-7.1,1.2-10.2
				c0.1-0.2,1-2,1-2c-1.3-0.4-2.6-0.9-3.9-1.3c0.7,1.1,1.2,2.3,1.5,3.6c0.8,2.9,0.8,5.6,2.3,8.3c0.6,1.2,6.6,4.1,6.7,1.8
				c0.1-3.2,0.3-6.8,0.2-9.9c-0.1-1.7,1.6-0.1-0.8-1.6c-2.8-1.7-0.1,1.4,0.3,2.2c1.3,2.3,2.6,5,2.4,7.8c-0.1,1.7,6.5,4.2,6.9,2.6
				c0.3-1.2,1.5-10.7,3.4-10.7c-1.4-0.5-2.8-1.1-4.3-1.6c2.8,1.9,3.4,8.9,3,11.9c-0.4,2.9-1.3,5.8-2.8,8.2
				c-2.7,4.4-7.5,6.7-12.4,7.8c-3.9,0.9-13,3.1-15.6-0.2C323,294.1,323.8,287.1,323.4,283.2c-0.2-2-7.1-4.1-6.9-2.2
				c0.8,7.7,0.2,15.9,8.2,19.7c7.8,3.8,18.9,2.3,26.7-0.7c9.5-3.6,14.3-14.2,11.2-23.8c-1.3-4.1-3.5-7.9-8.1-8.8
				c-6.2-1.2-6,7.2-6.9,11.5c2.3,0.9,4.6,1.7,6.9,2.6c0.3-5.8-5.5-15.9-12.1-16c-6-0.2-3.7,9.6-3.8,13.2c2.2,0.6,4.5,1.2,6.7,1.8
				c-2.2-4.2-1.1-9.5-4.7-13c-1.6-1.6-5.1-3.6-7.4-2.7c-3.8,1.5-3.5,10.5-3.4,13.8c0.1,1.9,7,4.3,6.9,2.2c-0.1-7.4-3.4-13.4-11-15.1
				c-2.8-0.6-5.4-0.5-6.8,2.2c-2.1,4.1-2.6,8.7-2.3,13.2C316.6,283,323.5,285.2,323.4,283.2z"/>
		</g>
	</g>
	<g>
		<g>
			<path d="M148.1,105.7c2.7-2.6,5.6-1.2,5,2.4c-0.4,2.7-2.9,4.4-4.2,6.7c-2.8,4.8-2.4,9,1.6,12.8c3.6,3.3,8.5,5.1,11.8,0.5
				c1.4-2,1.7-4.7,3-6.7c0.6-0.9,3-2.7,4.1-2.5c0.9,0.2,0.2-0.4,0.8,0.6c0.5,0.7,0.2,1.8,0.1,2.5c-0.7,5.6-6.7,8.2-5.7,14.2
				c0.6,4.1,3.9,8.2,7.8,9.7c2,0.8,4.1,0.8,6-0.2c2.6-1.4,2.7-4,4.7-5.8c0.6-0.6,2.4-1.7,3.3-1.5c1.1,0.3,1.6,2.3,1.6,3.1
				c-0.1,0.8-0.7,1.4-1.1,2.1c-1.2,2-2.3,3.5-2.1,5.9c0.4,4.4,5,9.6,9.5,10c3,0.3,5.5-1.5,6.9-3.9c0.5-0.8,0.9-2.8,1.9-3.1
				c1.8-0.6,1,2.4,0.6,3.6c-0.7,1.7,5,6.3,5.7,4.5c2.1-5.2-2.5-11.1-7.1-13.3c-2.3-1.1-4.2-0.9-5.6,1.3c-0.9,1.3-1.1,2.8-2.3,3.9
				c-0.5,0.4-3.3,2.2-3.7,2c-1.9-1.1,2.7-6.8,3.1-8.1c0.8-2.8-0.4-5.7-2.2-7.9c-3.2-4.2-9.9-8-14.3-3.2c-1.9,2.1-2.2,5.1-5.4,5.7
				c-1.9,0.4-1.9-0.1-1.6-2.5c0.2-1.7,1-2.7,2-4c3.5-4.5,5.3-9.6,2-14.6c-2.6-4.1-8.7-8.4-13.3-4.6c-2.1,1.7-2.4,4.9-3.8,7.2
				c-0.5,0.8-3.9,4.9-5,3.1c-0.5-0.9,1.9-5.2,2.4-5.9c1.5-2.4,3.6-4,4.2-6.9c0.7-3.1-0.1-5.9-2-8.4c-3.2-4.3-9.5-8.1-14.1-3.7
				C141.4,101.7,146.8,107,148.1,105.7L148.1,105.7z"/>
		</g>
	</g>
	<g>
		<g>
			<path d="M106.3,146.1c1.1-1.9,5.2-5.9,7-3.1c1.5,2.2-0.3,5.7-1.2,7.7c-2.2,4.9-3.2,10.3,1.6,13.8c3.9,2.9,10.6,4.6,14,0
				c1.8-2.5,2-5.7,2.3-8.7c0.2-1.3,0.3-2.2,1-3.3c0.6-1,3.9-4.1,5.2-3.7c2.7,0.8-0.1,9.2-0.8,10.9c-1,2.3-1.8,3.9-1.1,6.5
				c1.2,4.5,6.7,8.4,11.3,8.6c2.4,0.1,4.8-1,6.5-2.7c2.5-2.5,2-5.9,4-8.5c0.7-1,1.6-1.7,2.6-2.3c1.8-1,3.6-2.2,4,0.5
				c0.4,3.5-2.7,6.3-1.4,9.9c1.7,4.5,8.9,8.2,13.4,6.5c2.9-1.1,5-3.7,5.8-6.7c0.4-1.3,0.2-3.1,1.2-4.2c2.3-2.6,3,0.3,2.8,2.2
				c-0.3,2.1,6.5,4.4,6.6,3.6c0.8-5.8-5.2-9.9-10.3-10.8c-2.4-0.4-5-0.1-6.1,2.3c-0.8,1.6-0.6,3.6-1.4,5.3c-0.9,1.9-2.2,3.1-4.1,4.1
				c-1.3,0.7-0.2,1.9-1.3,0.3c-0.8-1.2-0.2-2.5,0.1-3.8c0.4-1.5,1.2-2.9,1.3-4.5c0.2-3.2-2.1-5.6-4.7-7.2c-4.8-3.1-11.3-4-15.1,1.2
				c-2,2.8-1.4,6.4-4.2,8.8c-4.7,4.1-4.9-1.5-3.5-4.9c2.7-6.3,3.1-12.3-3.1-16.2c-4.8-3.1-13.1-3.9-15.1,3c-0.9,3.2-0.3,6.7-2.1,9.7
				c-0.5,0.8-3.9,3.7-4.3,3.4c-1.2-1.1,0.1-5.2,0.5-6.5c0.9-3,2.8-5.5,2.7-8.8c-0.1-3.4-1.9-5.8-4.6-7.7c-5.1-3.5-12.5-4.3-16,1.8
				C98.9,143.8,105.5,147.5,106.3,146.1L106.3,146.1z"/>
		</g>
	</g>
	<g>
		<g>
			<path d="M96.4,197.7c-0.1-2.1,2-6.8,4.4-5.7c1.4,0.7,1.7,4.1,1.9,5.5c0.8,4.7,3,8.6,7.6,10.3c3.6,1.3,9.8,1.8,11.1-2.9
				c0.7-2.5-0.8-5.5-1.9-7.8c-0.5-1.1-1.1-1.7-1.1-3c-0.1-1.3,0.9-4.5,2.6-4.7c3.1-0.3,3.6,6.4,4.1,8.4c0.6,2.3,2,3.8,3.9,5
				c3.2,2.1,8.9,4.3,12.5,1.9c4.4-3,1.4-6.9,1.4-10.8c0-2.1,2.4-6.6,4.3-4.6c0.8,0.9,0.7,2.9,1.2,4c0.5,1.2,1.1,2.1,2.2,3
				c3.3,2.8,10.5,5.2,13.8,1.3c1.3-1.6,1.7-3.8,1.3-5.8c-0.2-1.2-1.3-2.4-1.3-3.6c0-1.6,1.7-3.8,2.7-1.6c0.9,1.9,7.6,2.6,7.1,1.7
				c-2.1-4.2-7.9-6.5-12.4-6c-8,0.8-1.9,6.4-3.3,10.9c-0.3,1-1.3,3.3-2.7,2.5c-0.8-0.5-1-3.7-1.4-4.6c-1.2-2.4-3.5-3.7-5.9-4.6
				c-4.5-1.7-11.4-1.7-12.6,4.3c-0.6,2.8,1.7,5.1,1.2,7.8c-0.1,0.8-0.5,1.7-0.9,2.3c-1.9,2.4-3.1,1.3-3.8-1.1
				c-1.7-5.9-2.8-10.3-9-12.6c-4.5-1.6-12.8-1.4-12,5.5c0.3,2.5,2.2,4.5,2.9,7c0.3,1.2,0.6,2.7,0,3.8c0,0-2.4,2.8-3,2.3
				c0.7,0.5-0.7-3.8-0.8-4.1c-0.7-2.6-0.6-4.9-2.1-7.1c-1.6-2.3-4-3.8-6.6-4.7c-4.9-1.7-12.5-1.1-12.3,5.8
				C89.4,197.5,96.4,198.7,96.4,197.7L96.4,197.7z"/>
		</g>
	</g>
	<g>
		<g>
			<path d="M314.7,102.2c-3.3-3.2-8.5-5.5-12.4-1.7c-3.6,3.6-2.2,9.2,0.5,12.9c2,2.8,5.8,6.8,2.8,10.3c-2,2.3-4.2,2.1-5.2-0.7
				c-0.4-1-0.6-2-1.2-3c-2.2-3.9-8-8-12.5-5.5c-5.2,2.9-3.7,9.2-1.4,13.4c1.4,2.6,4,4.5,3.6,7.7c-0.2,1.6-0.8,3.3-2,4.4
				c-1.4,1.2-2.4,0.3-3.9,0.9c-0.3-0.1-0.7-0.2-1-0.4c1.1,1,1.4,1.1,0.9,0.3c-1.7-4.2-6.9-8.6-11.7-7.9c-6.5,0.9-6.9,7.9-4.1,12.3
				c1.3,2,2.1,3.6,1,6c-0.3,0.7-0.6,1.3-1.2,1.8c-1,1-2.1,1.2-3.3,0.8c-1.3-0.4-1.6-0.4-0.8,0.1c0.6,0.6-0.9-2.5-1.4-3.1
				c-0.7-1-1.6-2-2.6-2.7c-5.7-4.3-11.4,2.5-9,8.4c0.6,1.5,1.9,3.1,3.4,3.9c0.5,0.3,2.8,1.3,2.2-0.3c-0.7-1.7-0.6-3,0.1-4.6
				c0.4-1,0.8-1.6,1.6-2.3c0.7-0.4,1.4-0.7,2-1.1c-0.6-0.7-1.3-1.4-1.9-2.1c-0.6,1.2,3.2,5.2,4,6c3.2,3,9.3,5.8,12.2,0.9
				c3.4-5.6-3.5-8.8-2.2-13.9c0.5-2.2,2.4-4.2,4.8-4.4c1.7-0.2,3.1,1.6,1.5-0.4c0.3,0.4,0.6,1,0.8,1.5c1.1,2.2,3.2,4.2,5.3,5.5
				c3.9,2.3,8.8,2.1,10.5-2.7c1.9-5.3-1.4-7.8-3.8-12c-1.6-2.8-2.3-6-0.4-8.7c0.6-0.9,3-2.9,4.1-2.6c0.9,0.2-0.2-0.2,0.6,0.6
				c0.2,0.2,0.8,2,1,2.4c1.9,3.8,5.5,9.1,10.3,9.2c7.8,0.1,6.6-8.3,3.9-12.9c-1.3-2.3-3.4-3.8-3.9-6.4c-0.4-1.9,0-3.8,1.2-5.4
				c0.8-1.1,4.4-3.6,5.7-2.3C316,107.1,317.8,105.3,314.7,102.2L314.7,102.2z"/>
		</g>
	</g>
	<g>
		<g>
			<path d="M359.3,145.4c-2.5-4.3-8.7-8-13.7-7.5c-5.6,0.5-7.8,6.3-6,11.1c1.1,3,2.7,5.5,2.8,8.7c0.1,1.9-0.7,5.2-3.2,5.3
				c-2.6,0.2-2.9-4-3.2-5.8c-0.3-2.6-0.3-4.4-2.1-6.5c-2.1-2.4-5.2-4.3-8.3-5.2c-5.8-1.7-10.7,1.8-10.1,8c0.3,3.4,2.2,6,2.9,9.2
				c0.8,3.5-4.4,11.5-6.7,5.9c-1.1-2.7-1.1-5.1-3.3-7.3c-2-2-4.6-3.5-7.2-4.5c-6.4-2.4-12.8,1.3-10.6,8.5c0.7,2.4,1.7,4.5,0.2,6.9
				c-0.5,0.8-1.7,1.9-2.5,2c-2,0.3-2.4-1.5-2.9-3.2c-0.9-3.1-1-4.9-3.9-6.8c-5.1-3.4-14.4-2.8-13.3,5.4c0.3,1.9,6.8,4.1,6.6,3
				c-0.2-1.3,0-2.8,0.7-4c0.5-0.8,1.1-1.1,1.8-1.7c1.4-1.1,0.6-1,1.1-0.7c0.6,0.5,0.9,3.5,1.4,4.4c0.6,1,1.3,1.9,2.2,2.8
				c3,2.9,8.8,6.5,13,4.5c7.8-3.7-1.6-11.7,3.4-16.3c4.9-4.5,5.5,0.6,6.8,4.1c0.8,2.2,2.4,3.8,4.2,5.2c3.7,2.8,10,5.9,13.8,1.7
				c4.7-5.1-0.6-10.5-1.1-16.1c-0.2-2.3,0.8-6.6,3.8-7.1c4.2-0.7,3.5,6,4.2,8.5c1.6,5.1,6.2,8.7,11.6,9.3c7.8,0.9,8.1-6.4,6-12
				c-1.1-2.9-2.7-5.2-2-8.5c0.6-2.5,5.2-7.4,7.4-3.6C354,144.7,360.3,147.1,359.3,145.4L359.3,145.4z"/>
		</g>
	</g>
	<g>
		<g>
			<path d="M372.3,196.5c0.5-10.6-18.1-12.3-20.8-2.1c-0.6,2.4-0.7,4.8-2,7.1c-0.3,0.6-2.1,3.4-3,3c-1.6-0.7,1.2-6.5,1.6-7.3
				c3-5.7,0.2-9.8-6-11.5c-6.2-1.7-10.7,1-12.9,6.9c-1,2.6-0.7,5.3-2.8,7.3c-0.4,0.4-1.9,2.1-2.1,2.1c0,0.2-0.1,0.4-0.1,0.6
				c-0.4-0.5-0.7-1-0.9-1.6c-0.6-1.5-0.3-2.8,0.1-4.2c1.8-5.4-0.2-9-5.7-11.1c-2.5-0.9-5.3-1.3-7.9-0.6c-4.4,1.2-4.1,4.1-5.8,7.5
				c-0.4,0.8-1,1.8-1.8,2.4c-1.5,1.2-0.8,1.1-1.4,0.1c-0.9-1.5-0.1-3.4,0.4-4.9c1-2.7,1.6-4.2-1.1-6c-4.5-3.2-12.5-3.7-15.3,1.8
				c-0.6,1.2,6.2,4.1,7.1,2.3c0.4-0.8,1.2-2.1,2.1-2.4c1.6-0.6,0.7,0.2,0.3,1.4c-0.7,2.1-1.3,3.9-0.6,6c1.4,4,6.7,6,10.7,5.8
				c2.6-0.2,5.1-1.4,6.4-3.8c0.9-1.7,2.1-9.2,5.5-7c2.2,1.4-0.3,5.4-0.6,7c-0.4,1.8-0.1,3.5,0.9,5c2.2,3.4,7.5,5.3,11.4,4.6
				c6.3-1,6.4-5.5,8.1-10.4c0.5-1.5,3.6-8,5.9-5.5c1.7,1.9-1.5,5.8-2.2,7.5c-2.3,5.8,0.7,9.2,6.3,10.7c5.7,1.5,9.5-0.7,11.4-6.3
				c0.7-2.2,0.6-4.5,1.8-6.5c0.8-1.4,2.2-3,3.9-3.4c-0.4,0.1,1.3-0.6,1.5-0.5c0.1,0.1,0.3,3.1,0.3,3.5
				C365.1,196.3,372.2,197.7,372.3,196.5L372.3,196.5z"/>
		</g>
	</g>
	<circle class="st0" cx="211.4" cy="207.1" r="3.5"/>
	<circle class="st0" cx="251.5" cy="207.1" r="3.5"/>
	<path class="st0" d="M240.9,236c0-1.1-7.5-7.6-7.5-7.6s-8.2,7.3-8.2,7.8C225.1,236.7,240.8,237.1,240.9,236z"/>
	<g>
		<g>
			<path d="M417.2,220.7c0,36.4,0,72.9,0,109.3c0,5.2,0,10.4,0,15.6c1.3-1.3,2.5-2.5,3.8-3.8c-12.1,0-24.2,0-36.3,0
				c-29.2,0-58.4,0-87.7,0c-35.2,0-70.4,0-105.6,0c-30.4,0-60.9,0-91.3,0c-10,0-20.1,0-30.1,0c-4.4,0-10.1-1-14.4,0
				c-0.2,0-0.5,0-0.7,0c1.3,1.3,2.5,2.5,3.8,3.8c0-30.3,0-60.7,0-91c0-48.2,0-96.3,0-144.5c0-11.1,0-22.1,0-33.2
				c-1.3,1.3-2.5,2.5-3.8,3.8c12.1,0,24.2,0,36.3,0c29.2,0,58.4,0,87.7,0c35.2,0,70.4,0,105.6,0c30.4,0,60.9,0,91.3,0
				c10,0,20.1,0,30.1,0c4.4,0,10.1,1,14.4,0c0.2,0,0.5,0,0.7,0c-1.3-1.3-2.5-2.5-3.8-3.8c0,42,0,84,0,126
				C417.2,208.8,417.2,214.8,417.2,220.7c0,4.8,7.5,4.8,7.5,0c0-42,0-84,0-126c0-5.9,0-11.9,0-17.8c0-2-1.7-3.8-3.8-3.8
				c-12.1,0-24.2,0-36.3,0c-29.2,0-58.4,0-87.7,0c-35.2,0-70.4,0-105.6,0c-30.4,0-60.9,0-91.3,0c-10,0-20.1,0-30.1,0
				c-4.7,0-9.6-0.3-14.4,0c-0.2,0-0.4,0-0.7,0c-2,0-3.8,1.7-3.8,3.8c0,30.3,0,60.7,0,91c0,48.2,0,96.3,0,144.5c0,11.1,0,22.1,0,33.2
				c0,2,1.7,3.8,3.8,3.8c12.1,0,24.2,0,36.3,0c29.2,0,58.4,0,87.7,0c35.2,0,70.4,0,105.6,0c30.4,0,60.9,0,91.3,0c10,0,20.1,0,30.1,0
				c4.7,0,9.6,0.3,14.4,0c0.2,0,0.4,0,0.7,0c2,0,3.8-1.7,3.8-3.8c0-36.4,0-72.9,0-109.3c0-5.2,0-10.4,0-15.6
				C424.7,215.9,417.2,215.9,417.2,220.7L417.2,220.7z"/>
		</g>
	</g>
	<g>
		<g>
			<path d="M360,287.4c20.3,0,40.6,0,60.9,0c4.8,0,4.8-7.5,0-7.5c-20.3,0-40.6,0-60.9,0C355.2,279.9,355.2,287.4,360,287.4
				L360,287.4z"/>
		</g>
	</g>
	<g>
		<g>
			<path d="M55,287.4c29.9,0,59.8,0,89.7,0c47.4,0,94.9,0,142.3,0c10.9,0,21.8,0,32.8,0c4.8,0,4.8-7.5,0-7.5c-29.9,0-59.8,0-89.7,0
				c-47.4,0-94.9,0-142.3,0c-10.9,0-21.8,0-32.8,0C50.2,279.9,50.2,287.4,55,287.4L55,287.4z"/>
		</g>
	</g>
</g>
</svg>
